<svg id="visual" viewBox="0 0 960 540" width="960" height="540" xmlns="http://www.w3.org/2000/svg" xmlns:xlink="http://www.w3.org/1999/xlink" version="1.1"><rect x="0" y="0" width="960" height="540" fill="#001220"></rect><defs><linearGradient id="grad1_0" x1="43.8%" y1="0%" x2="100%" y2="100%"><stop offset="14.444444444444446%" stop-color="#001220" stop-opacity="1"></stop><stop offset="85.55555555555554%" stop-color="#001220" stop-opacity="1"></stop></linearGradient></defs><defs><linearGradient id="grad2_0" x1="0%" y1="0%" x2="56.3%" y2="100%"><stop offset="14.444444444444446%" stop-color="#001220" stop-opacity="1"></stop><stop offset="85.55555555555554%" stop-color="#001220" stop-opacity="1"></stop></linearGradient></defs><g transform="translate(960, 0)"><path d="M0 486C-65.9 480 -131.8 474.1 -184.8 446.2C-237.9 418.4 -278.1 368.7 -323.9 323.9C-369.6 279 -421 239.1 -449 186C-477 132.8 -481.5 66.4 -486 0L0 0Z" fill="#FBAE3C"></path></g><g transform="translate(0, 540)"><path d="M0 -486C60.2 -461.9 120.4 -437.8 168.4 -406.5C216.3 -375.2 252 -336.8 301.9 -301.9C351.8 -267.1 416 -235.7 449 -186C482.1 -136.3 484 -68.1 486 0L0 0Z" fill="#FBAE3C"></path></g></svg>