<svg id="visual" viewBox="0 0 900 600" width="900" height="600" xmlns="http://www.w3.org/2000/svg" xmlns:xlink="http://www.w3.org/1999/xlink" version="1.1"><rect x="0" y="0" width="900" height="600" fill="#001220"></rect><defs><linearGradient id="grad1_0" x1="33.3%" y1="0%" x2="100%" y2="100%"><stop offset="20%" stop-color="#001220" stop-opacity="1"></stop><stop offset="80%" stop-color="#001220" stop-opacity="1"></stop></linearGradient></defs><defs><linearGradient id="grad2_0" x1="0%" y1="0%" x2="66.7%" y2="100%"><stop offset="20%" stop-color="#001220" stop-opacity="1"></stop><stop offset="80%" stop-color="#001220" stop-opacity="1"></stop></linearGradient></defs><g transform="translate(900, 0)"><path d="M0 486.7C-61.2 471.4 -122.5 456.1 -179.1 432.4C-235.7 408.6 -287.8 376.4 -335.2 335.2C-382.5 293.9 -425.2 243.6 -449.7 186.3C-474.2 128.9 -480.5 64.5 -486.7 0L0 0Z" fill="#FBAE3C"></path></g><g transform="translate(0, 600)"><path d="M0 -486.7C49.4 -437.6 98.8 -388.4 150 -362.2C201.3 -335.9 254.4 -332.7 309 -309C363.6 -285.3 419.8 -241.2 449.7 -186.3C479.6 -131.4 483.2 -65.7 486.7 0L0 0Z" fill="#FBAE3C"></path></g></svg>