<svg id="visual" viewBox="0 0 960 540" width="960" height="540" xmlns="http://www.w3.org/2000/svg" xmlns:xlink="http://www.w3.org/1999/xlink" version="1.1"><rect x="0" y="0" width="960" height="540" fill="#000000"></rect><path d="M0 268L22.8 259.8C45.7 251.7 91.3 235.3 137 244.2C182.7 253 228.3 287 274 317.2C319.7 347.3 365.3 373.7 411.2 367.5C457 361.3 503 322.7 548.8 293C594.7 263.3 640.3 242.7 686 248C731.7 253.3 777.3 284.7 823 310.3C868.7 336 914.3 356 937.2 366L960 376L960 541L937.2 541C914.3 541 868.7 541 823 541C777.3 541 731.7 541 686 541C640.3 541 594.7 541 548.8 541C503 541 457 541 411.2 541C365.3 541 319.7 541 274 541C228.3 541 182.7 541 137 541C91.3 541 45.7 541 22.8 541L0 541Z" fill="#0066FF" stroke-linecap="round" stroke-linejoin="miter"></path></svg>