<svg id="visual" viewBox="0 0 960 540" width="960" height="540" xmlns="http://www.w3.org/2000/svg" xmlns:xlink="http://www.w3.org/1999/xlink" version="1.1"><rect x="0" y="0" width="960" height="540" fill="#000000"></rect><path d="M0 369L8.5 369.5C17 370 34 371 50.8 333.5C67.7 296 84.3 220 101.2 218.7C118 217.3 135 290.7 151.8 294.5C168.7 298.3 185.3 232.7 202.2 198.7C219 164.7 236 162.3 252.8 175.5C269.7 188.7 286.3 217.3 303.2 214.3C320 211.3 337 176.7 353.8 201.3C370.7 226 387.3 310 404.2 327.5C421 345 438 296 454.8 258C471.7 220 488.3 193 505.2 185.8C522 178.7 539 191.3 555.8 210.3C572.7 229.3 589.3 254.7 606.2 246.7C623 238.7 640 197.3 656.8 201.2C673.7 205 690.3 254 707.2 290.7C724 327.3 741 351.7 757.8 326.8C774.7 302 791.3 228 808.2 222.2C825 216.3 842 278.7 858.8 303.7C875.7 328.7 892.3 316.3 909.2 305.8C926 295.3 943 286.7 951.5 282.3L960 278L960 0L951.5 0C943 0 926 0 909.2 0C892.3 0 875.7 0 858.8 0C842 0 825 0 808.2 0C791.3 0 774.7 0 757.8 0C741 0 724 0 707.2 0C690.3 0 673.7 0 656.8 0C640 0 623 0 606.2 0C589.3 0 572.7 0 555.8 0C539 0 522 0 505.2 0C488.3 0 471.7 0 454.8 0C438 0 421 0 404.2 0C387.3 0 370.7 0 353.8 0C337 0 320 0 303.2 0C286.3 0 269.7 0 252.8 0C236 0 219 0 202.2 0C185.3 0 168.7 0 151.8 0C135 0 118 0 101.2 0C84.3 0 67.7 0 50.8 0C34 0 17 0 8.5 0L0 0Z" fill="#FF0066" stroke-linecap="round" stroke-linejoin="miter"></path></svg>