<svg id="visual" viewBox="0 0 980 400" width="980" height="400" xmlns="http://www.w3.org/2000/svg" xmlns:xlink="http://www.w3.org/1999/xlink" version="1.1"><rect x="0" y="0" width="980" height="400" fill="#000000"></rect><path d="M0 146L23.3 147C46.7 148 93.3 150 140 145.3C186.7 140.7 233.3 129.3 280 130.5C326.7 131.7 373.3 145.3 420 146C466.7 146.7 513.3 134.3 560 124.8C606.7 115.3 653.3 108.7 700 106C746.7 103.3 793.3 104.7 840 114.2C886.7 123.7 933.3 141.3 956.7 150.2L980 159L980 0L956.7 0C933.3 0 886.7 0 840 0C793.3 0 746.7 0 700 0C653.3 0 606.7 0 560 0C513.3 0 466.7 0 420 0C373.3 0 326.7 0 280 0C233.3 0 186.7 0 140 0C93.3 0 46.7 0 23.3 0L0 0Z" fill="#dc5f00"></path><path d="M0 104L23.3 99.8C46.7 95.7 93.3 87.3 140 90.5C186.7 93.7 233.3 108.3 280 111.3C326.7 114.3 373.3 105.7 420 100.3C466.7 95 513.3 93 560 91.8C606.7 90.7 653.3 90.3 700 88.3C746.7 86.3 793.3 82.7 840 86.3C886.7 90 933.3 101 956.7 106.5L980 112L980 0L956.7 0C933.3 0 886.7 0 840 0C793.3 0 746.7 0 700 0C653.3 0 606.7 0 560 0C513.3 0 466.7 0 420 0C373.3 0 326.7 0 280 0C233.3 0 186.7 0 140 0C93.3 0 46.7 0 23.3 0L0 0Z" fill="#d95000"></path><path d="M0 102L23.3 100.5C46.7 99 93.3 96 140 95C186.7 94 233.3 95 280 91.2C326.7 87.3 373.3 78.7 420 76.7C466.7 74.7 513.3 79.3 560 79.8C606.7 80.3 653.3 76.7 700 79C746.7 81.3 793.3 89.7 840 94.5C886.7 99.3 933.3 100.7 956.7 101.3L980 102L980 0L956.7 0C933.3 0 886.7 0 840 0C793.3 0 746.7 0 700 0C653.3 0 606.7 0 560 0C513.3 0 466.7 0 420 0C373.3 0 326.7 0 280 0C233.3 0 186.7 0 140 0C93.3 0 46.7 0 23.3 0L0 0Z" fill="#d64002"></path><path d="M0 56L23.3 56.3C46.7 56.7 93.3 57.3 140 57.2C186.7 57 233.3 56 280 59.2C326.7 62.3 373.3 69.7 420 70.2C466.7 70.7 513.3 64.3 560 60.2C606.7 56 653.3 54 700 56C746.7 58 793.3 64 840 67.3C886.7 70.7 933.3 71.3 956.7 71.7L980 72L980 0L956.7 0C933.3 0 886.7 0 840 0C793.3 0 746.7 0 700 0C653.3 0 606.7 0 560 0C513.3 0 466.7 0 420 0C373.3 0 326.7 0 280 0C233.3 0 186.7 0 140 0C93.3 0 46.7 0 23.3 0L0 0Z" fill="#d32c05"></path><path d="M0 43L23.3 38.5C46.7 34 93.3 25 140 23.8C186.7 22.7 233.3 29.3 280 34C326.7 38.7 373.3 41.3 420 40C466.7 38.7 513.3 33.3 560 31.2C606.7 29 653.3 30 700 28.3C746.7 26.7 793.3 22.3 840 21.5C886.7 20.7 933.3 23.3 956.7 24.7L980 26L980 0L956.7 0C933.3 0 886.7 0 840 0C793.3 0 746.7 0 700 0C653.3 0 606.7 0 560 0C513.3 0 466.7 0 420 0C373.3 0 326.7 0 280 0C233.3 0 186.7 0 140 0C93.3 0 46.7 0 23.3 0L0 0Z" fill="#cf0a0a"></path></svg>