<svg id="visual" viewBox="0 0 900 600" width="900" height="600" xmlns="http://www.w3.org/2000/svg" xmlns:xlink="http://www.w3.org/1999/xlink" version="1.1"><g stroke-width="1" stroke-linejoin="bevel"><path d="M467 294L410 304L390 384Z" fill="#1d4e6b" stroke="#1d4e6b"></path><path d="M390 384L530 436L467 294Z" fill="#19435d" stroke="#19435d"></path><path d="M390 384L438 485L530 436Z" fill="#19435d" stroke="#19435d"></path><path d="M438 485L467 493L530 436Z" fill="#1d4e6b" stroke="#1d4e6b"></path><path d="M362 208L323 268L410 304Z" fill="#00101c" stroke="#00101c"></path><path d="M410 304L323 268L390 384Z" fill="#246688" stroke="#246688"></path><path d="M390 384L299 407L438 485Z" fill="#112e42" stroke="#112e42"></path><path d="M323 268L299 407L390 384Z" fill="#246688" stroke="#246688"></path><path d="M599 234L527 207L467 294Z" fill="#081a28" stroke="#081a28"></path><path d="M467 294L362 208L410 304Z" fill="#19435d" stroke="#19435d"></path><path d="M527 207L362 208L467 294Z" fill="#277297" stroke="#277297"></path><path d="M617 496L608 424L530 436Z" fill="#277297" stroke="#277297"></path><path d="M530 436L631 297L467 294Z" fill="#246688" stroke="#246688"></path><path d="M608 424L631 297L530 436Z" fill="#00101c" stroke="#00101c"></path><path d="M631 297L599 234L467 294Z" fill="#205a7a" stroke="#205a7a"></path><path d="M362 208L290 212L323 268Z" fill="#112e42" stroke="#112e42"></path><path d="M323 268L228 286L299 407Z" fill="#00101c" stroke="#00101c"></path><path d="M467 493L617 496L530 436Z" fill="#246688" stroke="#246688"></path><path d="M608 424L677 385L631 297Z" fill="#112e42" stroke="#112e42"></path><path d="M617 496L677 385L608 424Z" fill="#205a7a" stroke="#205a7a"></path><path d="M631 297L684 186L599 234Z" fill="#297ea6" stroke="#297ea6"></path><path d="M230 460L261 490L299 407Z" fill="#1d4e6b" stroke="#1d4e6b"></path><path d="M299 407L261 490L438 485Z" fill="#0c2435" stroke="#0c2435"></path><path d="M438 485L478 600L467 493Z" fill="#0c2435" stroke="#0c2435"></path><path d="M467 493L478 600L617 496Z" fill="#00101c" stroke="#00101c"></path><path d="M362 208L333 63L290 212Z" fill="#297ea6" stroke="#297ea6"></path><path d="M527 207L401 130L362 208Z" fill="#246688" stroke="#246688"></path><path d="M491 111L401 130L527 207Z" fill="#0c2435" stroke="#0c2435"></path><path d="M290 212L228 286L323 268Z" fill="#277297" stroke="#277297"></path><path d="M171 383L230 460L299 407Z" fill="#081a28" stroke="#081a28"></path><path d="M383 600L478 600L438 485Z" fill="#15384f" stroke="#15384f"></path><path d="M626 65L491 111L527 207Z" fill="#1d4e6b" stroke="#1d4e6b"></path><path d="M261 490L383 600L438 485Z" fill="#19435d" stroke="#19435d"></path><path d="M677 385L704 294L631 297Z" fill="#297ea6" stroke="#297ea6"></path><path d="M599 234L626 65L527 207Z" fill="#0c2435" stroke="#0c2435"></path><path d="M228 286L171 383L299 407Z" fill="#297ea6" stroke="#297ea6"></path><path d="M478 600L606 600L617 496Z" fill="#112e42" stroke="#112e42"></path><path d="M617 496L697 529L677 385Z" fill="#205a7a" stroke="#205a7a"></path><path d="M704 294L684 186L631 297Z" fill="#297ea6" stroke="#297ea6"></path><path d="M290 212L186 223L228 286Z" fill="#1d4e6b" stroke="#1d4e6b"></path><path d="M228 286L92 277L171 383Z" fill="#112e42" stroke="#112e42"></path><path d="M190 90L186 223L290 212Z" fill="#246688" stroke="#246688"></path><path d="M606 600L697 529L617 496Z" fill="#19435d" stroke="#19435d"></path><path d="M677 385L788 369L704 294Z" fill="#297ea6" stroke="#297ea6"></path><path d="M261 490L266 600L383 600Z" fill="#112e42" stroke="#112e42"></path><path d="M232 600L266 600L261 490Z" fill="#297ea6" stroke="#297ea6"></path><path d="M232 600L261 490L230 460Z" fill="#081a28" stroke="#081a28"></path><path d="M371 0L333 63L401 130Z" fill="#112e42" stroke="#112e42"></path><path d="M401 130L333 63L362 208Z" fill="#246688" stroke="#246688"></path><path d="M77 512L232 600L230 460Z" fill="#15384f" stroke="#15384f"></path><path d="M92 277L121 418L171 383Z" fill="#297ea6" stroke="#297ea6"></path><path d="M171 383L121 418L230 460Z" fill="#19435d" stroke="#19435d"></path><path d="M606 600L683 600L697 529Z" fill="#15384f" stroke="#15384f"></path><path d="M697 529L788 369L677 385Z" fill="#0c2435" stroke="#0c2435"></path><path d="M704 294L805 234L684 186Z" fill="#15384f" stroke="#15384f"></path><path d="M807 533L788 369L697 529Z" fill="#205a7a" stroke="#205a7a"></path><path d="M675 62L626 65L684 186Z" fill="#277297" stroke="#277297"></path><path d="M684 186L626 65L599 234Z" fill="#19435d" stroke="#19435d"></path><path d="M491 111L371 0L401 130Z" fill="#297ea6" stroke="#297ea6"></path><path d="M626 65L501 0L491 111Z" fill="#081a28" stroke="#081a28"></path><path d="M501 0L371 0L491 111Z" fill="#081a28" stroke="#081a28"></path><path d="M60 219L92 277L186 223Z" fill="#19435d" stroke="#19435d"></path><path d="M190 90L290 212L333 63Z" fill="#00101c" stroke="#00101c"></path><path d="M186 223L92 277L228 286Z" fill="#205a7a" stroke="#205a7a"></path><path d="M274 0L190 90L333 63Z" fill="#112e42" stroke="#112e42"></path><path d="M795 101L675 62L684 186Z" fill="#081a28" stroke="#081a28"></path><path d="M626 65L611 0L501 0Z" fill="#297ea6" stroke="#297ea6"></path><path d="M788 369L814 277L704 294Z" fill="#15384f" stroke="#15384f"></path><path d="M814 277L805 234L704 294Z" fill="#297ea6" stroke="#297ea6"></path><path d="M682 0L611 0L626 65Z" fill="#0c2435" stroke="#0c2435"></path><path d="M371 0L274 0L333 63Z" fill="#112e42" stroke="#112e42"></path><path d="M792 600L807 533L697 529Z" fill="#112e42" stroke="#112e42"></path><path d="M788 369L900 314L814 277Z" fill="#297ea6" stroke="#297ea6"></path><path d="M0 494L77 512L121 418Z" fill="#112e42" stroke="#112e42"></path><path d="M121 418L77 512L230 460Z" fill="#112e42" stroke="#112e42"></path><path d="M108 112L60 219L186 223Z" fill="#0c2435" stroke="#0c2435"></path><path d="M92 277L0 360L121 418Z" fill="#00101c" stroke="#00101c"></path><path d="M108 112L186 223L190 90Z" fill="#00101c" stroke="#00101c"></path><path d="M71 0L108 112L190 90Z" fill="#1d4e6b" stroke="#1d4e6b"></path><path d="M683 600L792 600L697 529Z" fill="#277297" stroke="#277297"></path><path d="M77 512L105 600L232 600Z" fill="#15384f" stroke="#15384f"></path><path d="M274 0L222 0L190 90Z" fill="#112e42" stroke="#112e42"></path><path d="M795 101L682 0L675 62Z" fill="#0c2435" stroke="#0c2435"></path><path d="M675 62L682 0L626 65Z" fill="#00101c" stroke="#00101c"></path><path d="M900 210L795 101L805 234Z" fill="#277297" stroke="#277297"></path><path d="M805 234L795 101L684 186Z" fill="#0c2435" stroke="#0c2435"></path><path d="M0 293L0 360L92 277Z" fill="#15384f" stroke="#15384f"></path><path d="M77 512L0 600L105 600Z" fill="#081a28" stroke="#081a28"></path><path d="M0 213L0 293L60 219Z" fill="#205a7a" stroke="#205a7a"></path><path d="M60 219L0 293L92 277Z" fill="#297ea6" stroke="#297ea6"></path><path d="M900 414L900 314L788 369Z" fill="#205a7a" stroke="#205a7a"></path><path d="M814 277L900 210L805 234Z" fill="#112e42" stroke="#112e42"></path><path d="M900 414L788 369L900 464Z" fill="#19435d" stroke="#19435d"></path><path d="M900 464L788 369L807 533Z" fill="#205a7a" stroke="#205a7a"></path><path d="M900 600L900 464L807 533Z" fill="#00101c" stroke="#00101c"></path><path d="M0 360L0 494L121 418Z" fill="#0c2435" stroke="#0c2435"></path><path d="M0 69L0 213L108 112Z" fill="#0c2435" stroke="#0c2435"></path><path d="M108 112L0 213L60 219Z" fill="#00101c" stroke="#00101c"></path><path d="M900 314L900 210L814 277Z" fill="#297ea6" stroke="#297ea6"></path><path d="M0 494L0 600L77 512Z" fill="#15384f" stroke="#15384f"></path><path d="M792 600L900 600L807 533Z" fill="#246688" stroke="#246688"></path><path d="M900 92L826 0L795 101Z" fill="#112e42" stroke="#112e42"></path><path d="M795 101L826 0L682 0Z" fill="#00101c" stroke="#00101c"></path><path d="M222 0L71 0L190 90Z" fill="#205a7a" stroke="#205a7a"></path><path d="M900 210L900 92L795 101Z" fill="#1d4e6b" stroke="#1d4e6b"></path><path d="M71 0L0 69L108 112Z" fill="#0c2435" stroke="#0c2435"></path><path d="M71 0L0 0L0 69Z" fill="#205a7a" stroke="#205a7a"></path><path d="M900 92L900 0L826 0Z" fill="#19435d" stroke="#19435d"></path></g></svg>