<svg id="visual" viewBox="0 0 900 600" width="900" height="600" xmlns="http://www.w3.org/2000/svg" xmlns:xlink="http://www.w3.org/1999/xlink" version="1.1"><g stroke-width="1" stroke-linejoin="bevel"><path d="M477 320L615 287L496 237Z" fill="#122e6d" stroke="#122e6d"></path><path d="M477 320L612 361L615 287Z" fill="#071d43" stroke="#071d43"></path><path d="M477 320L486 414L612 361Z" fill="#122e6d" stroke="#122e6d"></path><path d="M688 220L628 186L615 287Z" fill="#4a4fc6" stroke="#4a4fc6"></path><path d="M615 287L628 186L496 237Z" fill="#0b2658" stroke="#0b2658"></path><path d="M496 237L388 330L477 320Z" fill="#5d56dc" stroke="#5d56dc"></path><path d="M477 320L390 412L486 414Z" fill="#5d56dc" stroke="#5d56dc"></path><path d="M726 302L688 220L615 287Z" fill="#122e6d" stroke="#122e6d"></path><path d="M486 414L566 465L612 361Z" fill="#0b2658" stroke="#0b2658"></path><path d="M612 361L726 302L615 287Z" fill="#715df2" stroke="#715df2"></path><path d="M685 427L726 302L612 361Z" fill="#00061c" stroke="#00061c"></path><path d="M411 100L368 208L496 237Z" fill="#4a4fc6" stroke="#4a4fc6"></path><path d="M496 237L368 208L388 330Z" fill="#1d3783" stroke="#1d3783"></path><path d="M318 430L390 412L388 330Z" fill="#071d43" stroke="#071d43"></path><path d="M388 330L390 412L477 320Z" fill="#715df2" stroke="#715df2"></path><path d="M486 414L480 480L566 465Z" fill="#00061c" stroke="#00061c"></path><path d="M566 465L685 427L612 361Z" fill="#00061c" stroke="#00061c"></path><path d="M429 485L480 480L486 414Z" fill="#715df2" stroke="#715df2"></path><path d="M633 87L517 80L628 186Z" fill="#5d56dc" stroke="#5d56dc"></path><path d="M628 186L517 80L496 237Z" fill="#1d3783" stroke="#1d3783"></path><path d="M717 135L633 87L628 186Z" fill="#2a3f99" stroke="#2a3f99"></path><path d="M717 135L628 186L688 220Z" fill="#5d56dc" stroke="#5d56dc"></path><path d="M390 412L429 485L486 414Z" fill="#5d56dc" stroke="#5d56dc"></path><path d="M517 80L411 100L496 237Z" fill="#2a3f99" stroke="#2a3f99"></path><path d="M566 465L677 482L685 427Z" fill="#0b2658" stroke="#0b2658"></path><path d="M816 422L780 261L726 302Z" fill="#5d56dc" stroke="#5d56dc"></path><path d="M568 600L677 482L566 465Z" fill="#1d3783" stroke="#1d3783"></path><path d="M521 600L566 465L480 480Z" fill="#1d3783" stroke="#1d3783"></path><path d="M799 193L717 135L688 220Z" fill="#06142f" stroke="#06142f"></path><path d="M411 100L339 173L368 208Z" fill="#1d3783" stroke="#1d3783"></path><path d="M368 208L279 281L388 330Z" fill="#06142f" stroke="#06142f"></path><path d="M816 422L726 302L685 427Z" fill="#122e6d" stroke="#122e6d"></path><path d="M726 302L780 261L688 220Z" fill="#071d43" stroke="#071d43"></path><path d="M339 173L279 281L368 208Z" fill="#2a3f99" stroke="#2a3f99"></path><path d="M390 412L318 430L429 485Z" fill="#071d43" stroke="#071d43"></path><path d="M279 281L318 430L388 330Z" fill="#00061c" stroke="#00061c"></path><path d="M780 261L799 193L688 220Z" fill="#715df2" stroke="#715df2"></path><path d="M633 87L567 0L517 80Z" fill="#00061c" stroke="#00061c"></path><path d="M517 80L478 0L411 100Z" fill="#071d43" stroke="#071d43"></path><path d="M735 0L567 0L633 87Z" fill="#3947af" stroke="#3947af"></path><path d="M735 0L633 87L717 135Z" fill="#3947af" stroke="#3947af"></path><path d="M567 0L478 0L517 80Z" fill="#0b2658" stroke="#0b2658"></path><path d="M411 100L280 106L339 173Z" fill="#00061c" stroke="#00061c"></path><path d="M770 535L816 422L685 427Z" fill="#715df2" stroke="#715df2"></path><path d="M780 261L900 224L799 193Z" fill="#4a4fc6" stroke="#4a4fc6"></path><path d="M799 193L776 96L717 135Z" fill="#715df2" stroke="#715df2"></path><path d="M396 600L521 600L429 485Z" fill="#3947af" stroke="#3947af"></path><path d="M429 485L521 600L480 480Z" fill="#122e6d" stroke="#122e6d"></path><path d="M677 482L770 535L685 427Z" fill="#715df2" stroke="#715df2"></path><path d="M521 600L568 600L566 465Z" fill="#2a3f99" stroke="#2a3f99"></path><path d="M478 0L430 0L411 100Z" fill="#0b2658" stroke="#0b2658"></path><path d="M339 173L229 203L279 281Z" fill="#1d3783" stroke="#1d3783"></path><path d="M309 0L280 106L411 100Z" fill="#5d56dc" stroke="#5d56dc"></path><path d="M280 106L229 203L339 173Z" fill="#06142f" stroke="#06142f"></path><path d="M204 507L306 533L318 430Z" fill="#00061c" stroke="#00061c"></path><path d="M690 600L770 535L677 482Z" fill="#5d56dc" stroke="#5d56dc"></path><path d="M221 413L318 430L279 281Z" fill="#122e6d" stroke="#122e6d"></path><path d="M318 430L306 533L429 485Z" fill="#5d56dc" stroke="#5d56dc"></path><path d="M568 600L690 600L677 482Z" fill="#2a3f99" stroke="#2a3f99"></path><path d="M306 533L396 600L429 485Z" fill="#00061c" stroke="#00061c"></path><path d="M187 326L221 413L279 281Z" fill="#2a3f99" stroke="#2a3f99"></path><path d="M776 96L735 0L717 135Z" fill="#122e6d" stroke="#122e6d"></path><path d="M229 203L187 326L279 281Z" fill="#715df2" stroke="#715df2"></path><path d="M900 428L900 338L816 422Z" fill="#715df2" stroke="#715df2"></path><path d="M816 422L900 338L780 261Z" fill="#071d43" stroke="#071d43"></path><path d="M799 193L900 133L776 96Z" fill="#715df2" stroke="#715df2"></path><path d="M776 96L761 0L735 0Z" fill="#715df2" stroke="#715df2"></path><path d="M900 338L900 224L780 261Z" fill="#5d56dc" stroke="#5d56dc"></path><path d="M900 0L761 0L776 96Z" fill="#4a4fc6" stroke="#4a4fc6"></path><path d="M430 0L309 0L411 100Z" fill="#00061c" stroke="#00061c"></path><path d="M280 106L199 78L229 203Z" fill="#1d3783" stroke="#1d3783"></path><path d="M900 523L900 428L816 422Z" fill="#1d3783" stroke="#1d3783"></path><path d="M900 224L900 133L799 193Z" fill="#4a4fc6" stroke="#4a4fc6"></path><path d="M690 600L794 600L770 535Z" fill="#0b2658" stroke="#0b2658"></path><path d="M770 535L900 523L816 422Z" fill="#1d3783" stroke="#1d3783"></path><path d="M122 467L204 507L221 413Z" fill="#3947af" stroke="#3947af"></path><path d="M221 413L204 507L318 430Z" fill="#00061c" stroke="#00061c"></path><path d="M306 533L267 600L396 600Z" fill="#00061c" stroke="#00061c"></path><path d="M238 0L199 78L280 106Z" fill="#071d43" stroke="#071d43"></path><path d="M229 203L119 217L187 326Z" fill="#3947af" stroke="#3947af"></path><path d="M239 600L267 600L306 533Z" fill="#122e6d" stroke="#122e6d"></path><path d="M309 0L238 0L280 106Z" fill="#071d43" stroke="#071d43"></path><path d="M794 600L900 523L770 535Z" fill="#3947af" stroke="#3947af"></path><path d="M187 326L130 408L221 413Z" fill="#5d56dc" stroke="#5d56dc"></path><path d="M204 507L239 600L306 533Z" fill="#3947af" stroke="#3947af"></path><path d="M96 280L130 408L187 326Z" fill="#122e6d" stroke="#122e6d"></path><path d="M113 66L119 217L199 78Z" fill="#071d43" stroke="#071d43"></path><path d="M199 78L119 217L229 203Z" fill="#00061c" stroke="#00061c"></path><path d="M134 600L239 600L204 507Z" fill="#071d43" stroke="#071d43"></path><path d="M119 217L96 280L187 326Z" fill="#5d56dc" stroke="#5d56dc"></path><path d="M0 403L122 467L130 408Z" fill="#06142f" stroke="#06142f"></path><path d="M130 408L122 467L221 413Z" fill="#071d43" stroke="#071d43"></path><path d="M900 133L900 0L776 96Z" fill="#00061c" stroke="#00061c"></path><path d="M794 600L900 600L900 523Z" fill="#1d3783" stroke="#1d3783"></path><path d="M0 195L0 303L96 280Z" fill="#4a4fc6" stroke="#4a4fc6"></path><path d="M238 0L113 66L199 78Z" fill="#06142f" stroke="#06142f"></path><path d="M0 485L134 600L122 467Z" fill="#3947af" stroke="#3947af"></path><path d="M122 467L134 600L204 507Z" fill="#4a4fc6" stroke="#4a4fc6"></path><path d="M96 280L0 403L130 408Z" fill="#1d3783" stroke="#1d3783"></path><path d="M0 195L96 280L119 217Z" fill="#3947af" stroke="#3947af"></path><path d="M0 132L0 195L119 217Z" fill="#071d43" stroke="#071d43"></path><path d="M238 0L73 0L113 66Z" fill="#5d56dc" stroke="#5d56dc"></path><path d="M113 66L0 132L119 217Z" fill="#0b2658" stroke="#0b2658"></path><path d="M0 303L0 403L96 280Z" fill="#122e6d" stroke="#122e6d"></path><path d="M73 0L0 132L113 66Z" fill="#5d56dc" stroke="#5d56dc"></path><path d="M0 403L0 485L122 467Z" fill="#2a3f99" stroke="#2a3f99"></path><path d="M73 0L0 0L0 132Z" fill="#715df2" stroke="#715df2"></path><path d="M0 485L0 600L134 600Z" fill="#00061c" stroke="#00061c"></path></g></svg>