<svg id="visual" viewBox="0 0 960 540" width="960" height="540" xmlns="http://www.w3.org/2000/svg" xmlns:xlink="http://www.w3.org/1999/xlink" version="1.1"><g stroke-width="1" stroke-linejoin="bevel"><path d="M455.7 261L534.3 245L457.7 214Z" fill="#aa4a9d" stroke="#aa4a9d"></path><path d="M534.3 245L556.3 209L457.7 214Z" fill="#6654a4" stroke="#6654a4"></path><path d="M556.3 209L527.3 101L457.7 214Z" fill="#005594" stroke="#005594"></path><path d="M457.7 214L349 271L455.7 261Z" fill="#c74391" stroke="#c74391"></path><path d="M315 152L349 271L457.7 214Z" fill="#ef426a" stroke="#ef426a"></path><path d="M390.7 386L551.3 374L455.7 261Z" fill="#6654a4" stroke="#6654a4"></path><path d="M455.7 261L551.3 374L534.3 245Z" fill="#aa4a9d" stroke="#aa4a9d"></path><path d="M534.3 245L640 219L556.3 209Z" fill="#3f569f" stroke="#3f569f"></path><path d="M627 331L640 219L534.3 245Z" fill="#de3f80" stroke="#de3f80"></path><path d="M556.3 209L649 88L527.3 101Z" fill="#3f569f" stroke="#3f569f"></path><path d="M527.3 101L447.7 84L457.7 214Z" fill="#f7770f" stroke="#f7770f"></path><path d="M551.3 374L627 331L534.3 245Z" fill="#f7770f" stroke="#f7770f"></path><path d="M349 271L390.7 386L455.7 261Z" fill="#6654a4" stroke="#6654a4"></path><path d="M627 331L675 244L640 219Z" fill="#ef426a" stroke="#ef426a"></path><path d="M640 219L649 88L556.3 209Z" fill="#6654a4" stroke="#6654a4"></path><path d="M344 95L315 152L457.7 214Z" fill="#de3f80" stroke="#de3f80"></path><path d="M251.3 333L306 327L220.3 309Z" fill="#aa4a9d" stroke="#aa4a9d"></path><path d="M349 271L306 327L390.7 386Z" fill="#c74391" stroke="#c74391"></path><path d="M447.7 84L344 95L457.7 214Z" fill="#f7770f" stroke="#f7770f"></path><path d="M330 440L412.7 437L390.7 386Z" fill="#de3f80" stroke="#de3f80"></path><path d="M390.7 386L412.7 437L551.3 374Z" fill="#ef426a" stroke="#ef426a"></path><path d="M738.7 167L649 88L640 219Z" fill="#8a50a4" stroke="#8a50a4"></path><path d="M527.3 101L521.3 0L447.7 84Z" fill="#ef426a" stroke="#ef426a"></path><path d="M627 331L708.7 294L675 244Z" fill="#f94f52" stroke="#f94f52"></path><path d="M675 244L738.7 167L640 219Z" fill="#3f569f" stroke="#3f569f"></path><path d="M768.7 375L708.7 294L627 331Z" fill="#6654a4" stroke="#6654a4"></path><path d="M412.7 437L562.3 460L551.3 374Z" fill="#f7770f" stroke="#f7770f"></path><path d="M551.3 374L637 456L627 331Z" fill="#fc6137" stroke="#fc6137"></path><path d="M618 0L521.3 0L527.3 101Z" fill="#ef426a" stroke="#ef426a"></path><path d="M447.7 84L409.7 0L344 95Z" fill="#de3f80" stroke="#de3f80"></path><path d="M521.3 0L409.7 0L447.7 84Z" fill="#c74391" stroke="#c74391"></path><path d="M708.7 294L738.7 167L675 244Z" fill="#fc6137" stroke="#fc6137"></path><path d="M306 327L330 440L390.7 386Z" fill="#3f569f" stroke="#3f569f"></path><path d="M412.7 437L511.3 540L562.3 460Z" fill="#3f569f" stroke="#3f569f"></path><path d="M220.3 309L306 327L349 271Z" fill="#6654a4" stroke="#6654a4"></path><path d="M306 327L251.3 333L330 440Z" fill="#8a50a4" stroke="#8a50a4"></path><path d="M562.3 460L637 456L551.3 374Z" fill="#fc6137" stroke="#fc6137"></path><path d="M729.7 0L618 0L649 88Z" fill="#8a50a4" stroke="#8a50a4"></path><path d="M649 88L618 0L527.3 101Z" fill="#de3f80" stroke="#de3f80"></path><path d="M315 152L220.3 309L349 271Z" fill="#aa4a9d" stroke="#aa4a9d"></path><path d="M204.3 540L345 540L330 440Z" fill="#f7770f" stroke="#f7770f"></path><path d="M201.3 151L220.3 309L315 152Z" fill="#6654a4" stroke="#6654a4"></path><path d="M738.7 167L733.7 86L649 88Z" fill="#3f569f" stroke="#3f569f"></path><path d="M291 0L231.3 121L344 95Z" fill="#005594" stroke="#005594"></path><path d="M344 95L231.3 121L315 152Z" fill="#de3f80" stroke="#de3f80"></path><path d="M450.7 540L511.3 540L412.7 437Z" fill="#8a50a4" stroke="#8a50a4"></path><path d="M562.3 460L675 540L637 456Z" fill="#ef426a" stroke="#ef426a"></path><path d="M345 540L450.7 540L412.7 437Z" fill="#8a50a4" stroke="#8a50a4"></path><path d="M231.3 121L201.3 151L315 152Z" fill="#aa4a9d" stroke="#aa4a9d"></path><path d="M773.7 442L768.7 375L637 456Z" fill="#f7770f" stroke="#f7770f"></path><path d="M637 456L768.7 375L627 331Z" fill="#fc6137" stroke="#fc6137"></path><path d="M708.7 294L818.3 266L738.7 167Z" fill="#005594" stroke="#005594"></path><path d="M738.7 167L832.3 115L733.7 86Z" fill="#3f569f" stroke="#3f569f"></path><path d="M409.7 0L291 0L344 95Z" fill="#f94f52" stroke="#f94f52"></path><path d="M231.3 121L141.7 89L201.3 151Z" fill="#6654a4" stroke="#6654a4"></path><path d="M768.7 375L818.3 266L708.7 294Z" fill="#de3f80" stroke="#de3f80"></path><path d="M178.3 423L330 440L251.3 333Z" fill="#aa4a9d" stroke="#aa4a9d"></path><path d="M330 440L345 540L412.7 437Z" fill="#6654a4" stroke="#6654a4"></path><path d="M830.3 0L729.7 0L733.7 86Z" fill="#f94f52" stroke="#f94f52"></path><path d="M733.7 86L729.7 0L649 88Z" fill="#6654a4" stroke="#6654a4"></path><path d="M291 0L249.3 0L231.3 121Z" fill="#aa4a9d" stroke="#aa4a9d"></path><path d="M714.7 540L773.7 442L637 456Z" fill="#6654a4" stroke="#6654a4"></path><path d="M768.7 375L888.3 395L818.3 266Z" fill="#3f569f" stroke="#3f569f"></path><path d="M511.3 540L675 540L562.3 460Z" fill="#aa4a9d" stroke="#aa4a9d"></path><path d="M818.3 266L832.3 115L738.7 167Z" fill="#6654a4" stroke="#6654a4"></path><path d="M126.7 340L178.3 423L220.3 309Z" fill="#f7770f" stroke="#f7770f"></path><path d="M220.3 309L178.3 423L251.3 333Z" fill="#f7770f" stroke="#f7770f"></path><path d="M675 540L714.7 540L637 456Z" fill="#3f569f" stroke="#3f569f"></path><path d="M201.3 151L118.7 290L220.3 309Z" fill="#c74391" stroke="#c74391"></path><path d="M96.7 201L118.7 290L201.3 151Z" fill="#3f569f" stroke="#3f569f"></path><path d="M118.7 290L126.7 340L220.3 309Z" fill="#de3f80" stroke="#de3f80"></path><path d="M249.3 0L141.7 89L231.3 121Z" fill="#c74391" stroke="#c74391"></path><path d="M141.7 89L96.7 201L201.3 151Z" fill="#de3f80" stroke="#de3f80"></path><path d="M0 354L68.7 425L126.7 340Z" fill="#f94f52" stroke="#f94f52"></path><path d="M960 302L890.3 205L818.3 266Z" fill="#fc6137" stroke="#fc6137"></path><path d="M818.3 266L890.3 205L832.3 115Z" fill="#f7770f" stroke="#f7770f"></path><path d="M960 79L830.3 0L832.3 115Z" fill="#aa4a9d" stroke="#aa4a9d"></path><path d="M832.3 115L830.3 0L733.7 86Z" fill="#c74391" stroke="#c74391"></path><path d="M178.3 423L204.3 540L330 440Z" fill="#8a50a4" stroke="#8a50a4"></path><path d="M133.7 540L204.3 540L178.3 423Z" fill="#3f569f" stroke="#3f569f"></path><path d="M854.3 472L888.3 395L773.7 442Z" fill="#de3f80" stroke="#de3f80"></path><path d="M773.7 442L888.3 395L768.7 375Z" fill="#f94f52" stroke="#f94f52"></path><path d="M861.3 540L854.3 472L773.7 442Z" fill="#f94f52" stroke="#f94f52"></path><path d="M249.3 0L107.7 0L141.7 89Z" fill="#f94f52" stroke="#f94f52"></path><path d="M0 111L0 178L96.7 201Z" fill="#fc6137" stroke="#fc6137"></path><path d="M0 354L126.7 340L118.7 290Z" fill="#aa4a9d" stroke="#aa4a9d"></path><path d="M126.7 340L68.7 425L178.3 423Z" fill="#ef426a" stroke="#ef426a"></path><path d="M0 255L118.7 290L96.7 201Z" fill="#f94f52" stroke="#f94f52"></path><path d="M68.7 425L133.7 540L178.3 423Z" fill="#8a50a4" stroke="#8a50a4"></path><path d="M960 324L960 302L818.3 266Z" fill="#ef426a" stroke="#ef426a"></path><path d="M890.3 205L960 174L832.3 115Z" fill="#aa4a9d" stroke="#aa4a9d"></path><path d="M960 324L818.3 266L888.3 395Z" fill="#005594" stroke="#005594"></path><path d="M960 302L960 174L890.3 205Z" fill="#de3f80" stroke="#de3f80"></path><path d="M960 447L960 324L888.3 395Z" fill="#c74391" stroke="#c74391"></path><path d="M714.7 540L861.3 540L773.7 442Z" fill="#005594" stroke="#005594"></path><path d="M854.3 472L960 447L888.3 395Z" fill="#c74391" stroke="#c74391"></path><path d="M0 178L0 255L96.7 201Z" fill="#ef426a" stroke="#ef426a"></path><path d="M960 174L960 79L832.3 115Z" fill="#ef426a" stroke="#ef426a"></path><path d="M0 111L96.7 201L141.7 89Z" fill="#8a50a4" stroke="#8a50a4"></path><path d="M0 255L0 354L118.7 290Z" fill="#f94f52" stroke="#f94f52"></path><path d="M68.7 425L0 540L133.7 540Z" fill="#6654a4" stroke="#6654a4"></path><path d="M107.7 0L0 111L141.7 89Z" fill="#ef426a" stroke="#ef426a"></path><path d="M960 540L960 447L854.3 472Z" fill="#8a50a4" stroke="#8a50a4"></path><path d="M960 79L960 0L830.3 0Z" fill="#f7770f" stroke="#f7770f"></path><path d="M0 354L0 424L68.7 425Z" fill="#ef426a" stroke="#ef426a"></path><path d="M107.7 0L0 0L0 111Z" fill="#ef426a" stroke="#ef426a"></path><path d="M861.3 540L960 540L854.3 472Z" fill="#c74391" stroke="#c74391"></path><path d="M0 424L0 540L68.7 425Z" fill="#ef426a" stroke="#ef426a"></path></g></svg>