<svg id="visual" viewBox="0 0 900 600" width="900" height="600" xmlns="http://www.w3.org/2000/svg" xmlns:xlink="http://www.w3.org/1999/xlink" version="1.1"><g stroke-width="1" stroke-linejoin="bevel"><path d="M465 308L443 338L501 347Z" fill="#dc1114" stroke="#dc1114"></path><path d="M501 347L536 270L465 308Z" fill="#7f1919" stroke="#7f1919"></path><path d="M501 347L571 330L536 270Z" fill="#291210" stroke="#291210"></path><path d="M536 270L443 243L465 308Z" fill="#ad1719" stroke="#ad1719"></path><path d="M465 308L443 243L443 338Z" fill="#961819" stroke="#961819"></path><path d="M341 305L347 339L443 338Z" fill="#691918" stroke="#691918"></path><path d="M432 472L492 472L501 347Z" fill="#140b0a" stroke="#140b0a"></path><path d="M443 243L341 305L443 338Z" fill="#531716" stroke="#531716"></path><path d="M432 472L501 347L443 338Z" fill="#dc1114" stroke="#dc1114"></path><path d="M501 347L602 452L571 330Z" fill="#531716" stroke="#531716"></path><path d="M339 442L432 472L443 338Z" fill="#291210" stroke="#291210"></path><path d="M606 231L558 222L536 270Z" fill="#ad1719" stroke="#ad1719"></path><path d="M536 270L558 222L443 243Z" fill="#961819" stroke="#961819"></path><path d="M335 221L316 308L341 305Z" fill="#140b0a" stroke="#140b0a"></path><path d="M341 305L316 308L347 339Z" fill="#291210" stroke="#291210"></path><path d="M347 339L339 442L443 338Z" fill="#140b0a" stroke="#140b0a"></path><path d="M571 330L606 231L536 270Z" fill="#140b0a" stroke="#140b0a"></path><path d="M635 400L643 338L571 330Z" fill="#7f1919" stroke="#7f1919"></path><path d="M571 330L643 338L606 231Z" fill="#dc1114" stroke="#dc1114"></path><path d="M284 404L339 442L347 339Z" fill="#961819" stroke="#961819"></path><path d="M492 472L602 452L501 347Z" fill="#7f1919" stroke="#7f1919"></path><path d="M602 452L635 400L571 330Z" fill="#ad1719" stroke="#ad1719"></path><path d="M379 135L335 221L443 243Z" fill="#dc1114" stroke="#dc1114"></path><path d="M443 243L335 221L341 305Z" fill="#c41517" stroke="#c41517"></path><path d="M538 121L486 155L558 222Z" fill="#ad1719" stroke="#ad1719"></path><path d="M558 222L486 155L443 243Z" fill="#140b0a" stroke="#140b0a"></path><path d="M189 333L284 404L316 308Z" fill="#3d1514" stroke="#3d1514"></path><path d="M316 308L284 404L347 339Z" fill="#f40e0e" stroke="#f40e0e"></path><path d="M284 404L331 481L339 442Z" fill="#691918" stroke="#691918"></path><path d="M339 442L331 481L432 472Z" fill="#ad1719" stroke="#ad1719"></path><path d="M432 472L410 541L492 472Z" fill="#691918" stroke="#691918"></path><path d="M331 481L410 541L432 472Z" fill="#dc1114" stroke="#dc1114"></path><path d="M492 472L574 531L602 452Z" fill="#961819" stroke="#961819"></path><path d="M554 562L574 531L492 472Z" fill="#f40e0e" stroke="#f40e0e"></path><path d="M735 400L707 340L635 400Z" fill="#7f1919" stroke="#7f1919"></path><path d="M643 338L670 239L606 231Z" fill="#691918" stroke="#691918"></path><path d="M609 119L538 121L558 222Z" fill="#3d1514" stroke="#3d1514"></path><path d="M720 301L670 239L643 338Z" fill="#f40e0e" stroke="#f40e0e"></path><path d="M486 155L379 135L443 243Z" fill="#531716" stroke="#531716"></path><path d="M609 119L558 222L606 231Z" fill="#dc1114" stroke="#dc1114"></path><path d="M486 155L454 69L379 135Z" fill="#140b0a" stroke="#140b0a"></path><path d="M710 454L635 400L602 452Z" fill="#140b0a" stroke="#140b0a"></path><path d="M635 400L707 340L643 338Z" fill="#f40e0e" stroke="#f40e0e"></path><path d="M538 121L508 105L486 155Z" fill="#3d1514" stroke="#3d1514"></path><path d="M268 138L269 220L335 221Z" fill="#ad1719" stroke="#ad1719"></path><path d="M335 221L269 220L316 308Z" fill="#961819" stroke="#961819"></path><path d="M211 497L319 517L331 481Z" fill="#ad1719" stroke="#ad1719"></path><path d="M331 481L363 562L410 541Z" fill="#c41517" stroke="#c41517"></path><path d="M410 541L554 562L492 472Z" fill="#961819" stroke="#961819"></path><path d="M705 512L710 454L602 452Z" fill="#7f1919" stroke="#7f1919"></path><path d="M707 340L720 301L643 338Z" fill="#531716" stroke="#531716"></path><path d="M319 517L363 562L331 481Z" fill="#531716" stroke="#531716"></path><path d="M410 541L420 600L554 562Z" fill="#291210" stroke="#291210"></path><path d="M268 138L248 216L269 220Z" fill="#961819" stroke="#961819"></path><path d="M269 220L189 333L316 308Z" fill="#c41517" stroke="#c41517"></path><path d="M710 185L609 119L606 231Z" fill="#140b0a" stroke="#140b0a"></path><path d="M622 0L494 0L508 105Z" fill="#c41517" stroke="#c41517"></path><path d="M710 185L606 231L670 239Z" fill="#291210" stroke="#291210"></path><path d="M705 512L602 452L574 531Z" fill="#3d1514" stroke="#3d1514"></path><path d="M707 340L735 400L720 301Z" fill="#140b0a" stroke="#140b0a"></path><path d="M363 562L420 600L410 541Z" fill="#c41517" stroke="#c41517"></path><path d="M494 0L454 69L508 105Z" fill="#140b0a" stroke="#140b0a"></path><path d="M508 105L454 69L486 155Z" fill="#961819" stroke="#961819"></path><path d="M379 135L268 138L335 221Z" fill="#531716" stroke="#531716"></path><path d="M710 454L735 400L635 400Z" fill="#ad1719" stroke="#ad1719"></path><path d="M454 69L405 75L379 135Z" fill="#c41517" stroke="#c41517"></path><path d="M420 600L560 600L554 562Z" fill="#c41517" stroke="#c41517"></path><path d="M554 562L572 600L574 531Z" fill="#691918" stroke="#691918"></path><path d="M560 600L572 600L554 562Z" fill="#7f1919" stroke="#7f1919"></path><path d="M778 187L710 185L720 301Z" fill="#961819" stroke="#961819"></path><path d="M720 301L710 185L670 239Z" fill="#140b0a" stroke="#140b0a"></path><path d="M248 216L189 333L269 220Z" fill="#c41517" stroke="#c41517"></path><path d="M284 404L211 497L331 481Z" fill="#291210" stroke="#291210"></path><path d="M274 97L268 138L379 135Z" fill="#691918" stroke="#691918"></path><path d="M141 330L163 339L189 333Z" fill="#140b0a" stroke="#140b0a"></path><path d="M189 333L186 352L284 404Z" fill="#961819" stroke="#961819"></path><path d="M710 454L759 441L735 400Z" fill="#ad1719" stroke="#ad1719"></path><path d="M652 600L705 512L574 531Z" fill="#c41517" stroke="#c41517"></path><path d="M319 517L335 600L363 562Z" fill="#961819" stroke="#961819"></path><path d="M363 562L335 600L420 600Z" fill="#140b0a" stroke="#140b0a"></path><path d="M279 600L335 600L319 517Z" fill="#7f1919" stroke="#7f1919"></path><path d="M748 524L759 441L710 454Z" fill="#691918" stroke="#691918"></path><path d="M862 226L778 187L720 301Z" fill="#961819" stroke="#961819"></path><path d="M186 352L185 441L284 404Z" fill="#961819" stroke="#961819"></path><path d="M778 187L710 143L710 185Z" fill="#dc1114" stroke="#dc1114"></path><path d="M710 185L710 143L609 119Z" fill="#f40e0e" stroke="#f40e0e"></path><path d="M622 0L508 105L538 121Z" fill="#691918" stroke="#691918"></path><path d="M185 441L211 497L284 404Z" fill="#691918" stroke="#691918"></path><path d="M186 352L163 339L185 441Z" fill="#ad1719" stroke="#ad1719"></path><path d="M189 333L163 339L186 352Z" fill="#531716" stroke="#531716"></path><path d="M141 330L189 333L115 224Z" fill="#961819" stroke="#961819"></path><path d="M405 75L274 97L379 135Z" fill="#ad1719" stroke="#ad1719"></path><path d="M268 138L229 131L248 216Z" fill="#3d1514" stroke="#3d1514"></path><path d="M572 600L652 600L574 531Z" fill="#291210" stroke="#291210"></path><path d="M705 512L748 524L710 454Z" fill="#c41517" stroke="#c41517"></path><path d="M274 97L229 131L268 138Z" fill="#961819" stroke="#961819"></path><path d="M211 497L279 600L319 517Z" fill="#961819" stroke="#961819"></path><path d="M710 143L658 65L609 119Z" fill="#dc1114" stroke="#dc1114"></path><path d="M115 224L189 333L248 216Z" fill="#ad1719" stroke="#ad1719"></path><path d="M163 339L141 330L185 441Z" fill="#dc1114" stroke="#dc1114"></path><path d="M739 600L748 524L705 512Z" fill="#691918" stroke="#691918"></path><path d="M454 69L412 0L405 75Z" fill="#961819" stroke="#961819"></path><path d="M405 75L341 0L274 97Z" fill="#ad1719" stroke="#ad1719"></path><path d="M637 40L538 121L609 119Z" fill="#c41517" stroke="#c41517"></path><path d="M658 65L637 40L609 119Z" fill="#dc1114" stroke="#dc1114"></path><path d="M861 315L720 301L735 400Z" fill="#7f1919" stroke="#7f1919"></path><path d="M784 90L681 0L658 65Z" fill="#531716" stroke="#531716"></path><path d="M681 0L622 0L637 40Z" fill="#140b0a" stroke="#140b0a"></path><path d="M494 0L412 0L454 69Z" fill="#7f1919" stroke="#7f1919"></path><path d="M131 479L165 510L185 441Z" fill="#531716" stroke="#531716"></path><path d="M185 441L165 510L211 497Z" fill="#ad1719" stroke="#ad1719"></path><path d="M211 497L187 600L279 600Z" fill="#691918" stroke="#691918"></path><path d="M274 97L223 76L229 131Z" fill="#140b0a" stroke="#140b0a"></path><path d="M229 131L161 143L248 216Z" fill="#ad1719" stroke="#ad1719"></path><path d="M264 0L223 76L274 97Z" fill="#140b0a" stroke="#140b0a"></path><path d="M412 0L341 0L405 75Z" fill="#7f1919" stroke="#7f1919"></path><path d="M223 76L161 143L229 131Z" fill="#961819" stroke="#961819"></path><path d="M681 0L637 40L658 65Z" fill="#ad1719" stroke="#ad1719"></path><path d="M637 40L622 0L538 121Z" fill="#291210" stroke="#291210"></path><path d="M141 330L131 479L185 441Z" fill="#3d1514" stroke="#3d1514"></path><path d="M851 534L839 419L759 441Z" fill="#531716" stroke="#531716"></path><path d="M652 600L739 600L705 512Z" fill="#3d1514" stroke="#3d1514"></path><path d="M115 224L99 317L141 330Z" fill="#f40e0e" stroke="#f40e0e"></path><path d="M141 330L42 382L131 479Z" fill="#3d1514" stroke="#3d1514"></path><path d="M851 534L759 441L748 524Z" fill="#961819" stroke="#961819"></path><path d="M759 441L839 419L735 400Z" fill="#140b0a" stroke="#140b0a"></path><path d="M161 143L115 224L248 216Z" fill="#531716" stroke="#531716"></path><path d="M900 439L848 414L839 419Z" fill="#dc1114" stroke="#dc1114"></path><path d="M839 419L861 315L735 400Z" fill="#291210" stroke="#291210"></path><path d="M129 600L187 600L165 510Z" fill="#531716" stroke="#531716"></path><path d="M165 510L187 600L211 497Z" fill="#ad1719" stroke="#ad1719"></path><path d="M848 414L861 315L839 419Z" fill="#c41517" stroke="#c41517"></path><path d="M784 90L658 65L710 143Z" fill="#140b0a" stroke="#140b0a"></path><path d="M784 90L710 143L778 187Z" fill="#291210" stroke="#291210"></path><path d="M118 38L99 143L161 143Z" fill="#531716" stroke="#531716"></path><path d="M341 0L264 0L274 97Z" fill="#ad1719" stroke="#ad1719"></path><path d="M812 93L784 90L778 187Z" fill="#7f1919" stroke="#7f1919"></path><path d="M42 382L99 488L131 479Z" fill="#c41517" stroke="#c41517"></path><path d="M131 479L99 488L165 510Z" fill="#ad1719" stroke="#ad1719"></path><path d="M861 315L862 226L720 301Z" fill="#7f1919" stroke="#7f1919"></path><path d="M264 0L247 0L223 76Z" fill="#ad1719" stroke="#ad1719"></path><path d="M115 224L87 205L99 317Z" fill="#140b0a" stroke="#140b0a"></path><path d="M99 317L42 382L141 330Z" fill="#3d1514" stroke="#3d1514"></path><path d="M99 143L87 205L115 224Z" fill="#140b0a" stroke="#140b0a"></path><path d="M99 143L115 224L161 143Z" fill="#7f1919" stroke="#7f1919"></path><path d="M739 600L794 600L748 524Z" fill="#dc1114" stroke="#dc1114"></path><path d="M855 130L812 93L778 187Z" fill="#dc1114" stroke="#dc1114"></path><path d="M784 90L778 0L681 0Z" fill="#ad1719" stroke="#ad1719"></path><path d="M118 38L161 143L223 76Z" fill="#140b0a" stroke="#140b0a"></path><path d="M794 600L851 534L748 524Z" fill="#140b0a" stroke="#140b0a"></path><path d="M900 361L900 329L861 315Z" fill="#f40e0e" stroke="#f40e0e"></path><path d="M900 361L861 315L848 414Z" fill="#f40e0e" stroke="#f40e0e"></path><path d="M861 315L900 247L862 226Z" fill="#961819" stroke="#961819"></path><path d="M900 439L900 361L848 414Z" fill="#3d1514" stroke="#3d1514"></path><path d="M62 554L129 600L165 510Z" fill="#3d1514" stroke="#3d1514"></path><path d="M0 319L42 382L99 317Z" fill="#dc1114" stroke="#dc1114"></path><path d="M99 488L62 554L165 510Z" fill="#961819" stroke="#961819"></path><path d="M0 319L99 317L0 238Z" fill="#531716" stroke="#531716"></path><path d="M900 151L855 130L862 226Z" fill="#f40e0e" stroke="#f40e0e"></path><path d="M862 226L855 130L778 187Z" fill="#291210" stroke="#291210"></path><path d="M900 329L900 247L861 315Z" fill="#531716" stroke="#531716"></path><path d="M851 534L900 439L839 419Z" fill="#140b0a" stroke="#140b0a"></path><path d="M247 0L172 0L223 76Z" fill="#ad1719" stroke="#ad1719"></path><path d="M847 0L778 0L812 93Z" fill="#7f1919" stroke="#7f1919"></path><path d="M812 93L778 0L784 90Z" fill="#7f1919" stroke="#7f1919"></path><path d="M900 600L900 514L851 534Z" fill="#291210" stroke="#291210"></path><path d="M851 534L900 514L900 439Z" fill="#3d1514" stroke="#3d1514"></path><path d="M172 0L118 38L223 76Z" fill="#961819" stroke="#961819"></path><path d="M99 143L0 141L87 205Z" fill="#3d1514" stroke="#3d1514"></path><path d="M0 472L62 554L99 488Z" fill="#3d1514" stroke="#3d1514"></path><path d="M900 247L900 151L862 226Z" fill="#c41517" stroke="#c41517"></path><path d="M855 130L900 90L812 93Z" fill="#f40e0e" stroke="#f40e0e"></path><path d="M118 38L68 106L99 143Z" fill="#f40e0e" stroke="#f40e0e"></path><path d="M0 238L99 317L87 205Z" fill="#140b0a" stroke="#140b0a"></path><path d="M42 382L0 472L99 488Z" fill="#691918" stroke="#691918"></path><path d="M0 319L0 408L42 382Z" fill="#961819" stroke="#961819"></path><path d="M0 141L0 238L87 205Z" fill="#291210" stroke="#291210"></path><path d="M62 554L66 600L129 600Z" fill="#140b0a" stroke="#140b0a"></path><path d="M0 600L66 600L62 554Z" fill="#961819" stroke="#961819"></path><path d="M0 408L0 472L42 382Z" fill="#dc1114" stroke="#dc1114"></path><path d="M900 151L900 90L855 130Z" fill="#140b0a" stroke="#140b0a"></path><path d="M172 0L103 0L118 38Z" fill="#ad1719" stroke="#ad1719"></path><path d="M118 38L0 52L68 106Z" fill="#140b0a" stroke="#140b0a"></path><path d="M68 106L0 141L99 143Z" fill="#531716" stroke="#531716"></path><path d="M794 600L900 600L851 534Z" fill="#531716" stroke="#531716"></path><path d="M900 90L847 0L812 93Z" fill="#c41517" stroke="#c41517"></path><path d="M0 52L0 141L68 106Z" fill="#961819" stroke="#961819"></path><path d="M0 472L0 534L62 554Z" fill="#691918" stroke="#691918"></path><path d="M0 534L0 600L62 554Z" fill="#ad1719" stroke="#ad1719"></path><path d="M900 90L900 0L847 0Z" fill="#3d1514" stroke="#3d1514"></path><path d="M103 0L0 52L118 38Z" fill="#ad1719" stroke="#ad1719"></path><path d="M103 0L0 0L0 52Z" fill="#291210" stroke="#291210"></path></g></svg>