<svg id="visual" viewBox="0 0 900 600" width="900" height="600" xmlns="http://www.w3.org/2000/svg" xmlns:xlink="http://www.w3.org/1999/xlink" version="1.1"><path d="M0 103L82 103L82 91L164 91L164 43L245 43L245 43L327 43L327 97L409 97L409 97L491 97L491 109L573 109L573 55L655 55L655 61L736 61L736 121L818 121L818 115L900 115L900 67L900 0L900 0L818 0L818 0L736 0L736 0L655 0L655 0L573 0L573 0L491 0L491 0L409 0L409 0L327 0L327 0L245 0L245 0L164 0L164 0L82 0L82 0L0 0Z" fill="#0066ff"></path><path d="M0 217L82 217L82 151L164 151L164 169L245 169L245 181L327 181L327 169L409 169L409 217L491 217L491 241L573 241L573 211L655 211L655 145L736 145L736 187L818 187L818 205L900 205L900 199L900 65L900 113L818 113L818 119L736 119L736 59L655 59L655 53L573 53L573 107L491 107L491 95L409 95L409 95L327 95L327 41L245 41L245 41L164 41L164 89L82 89L82 101L0 101Z" fill="#2054c9"></path><path d="M0 295L82 295L82 247L164 247L164 211L245 211L245 217L327 217L327 271L409 271L409 319L491 319L491 295L573 295L573 247L655 247L655 223L736 223L736 253L818 253L818 271L900 271L900 283L900 197L900 203L818 203L818 185L736 185L736 143L655 143L655 209L573 209L573 239L491 239L491 215L409 215L409 167L327 167L327 179L245 179L245 167L164 167L164 149L82 149L82 215L0 215Z" fill="#284395"></path><path d="M0 433L82 433L82 361L164 361L164 493L245 493L245 475L327 475L327 463L409 463L409 535L491 535L491 385L573 385L573 517L655 517L655 445L736 445L736 367L818 367L818 505L900 505L900 511L900 281L900 269L818 269L818 251L736 251L736 221L655 221L655 245L573 245L573 293L491 293L491 317L409 317L409 269L327 269L327 215L245 215L245 209L164 209L164 245L82 245L82 293L0 293Z" fill="#273264"></path><path d="M0 601L82 601L82 601L164 601L164 601L245 601L245 601L327 601L327 601L409 601L409 601L491 601L491 601L573 601L573 601L655 601L655 601L736 601L736 601L818 601L818 601L900 601L900 601L900 509L900 503L818 503L818 365L736 365L736 443L655 443L655 515L573 515L573 383L491 383L491 533L409 533L409 461L327 461L327 473L245 473L245 491L164 491L164 359L82 359L82 431L0 431Z" fill="#202236"></path></svg>