<svg id="visual" viewBox="0 0 960 540" width="960" height="540" xmlns="http://www.w3.org/2000/svg" xmlns:xlink="http://www.w3.org/1999/xlink" version="1.1"><path d="M0 131L87 131L87 206L175 206L175 228L262 228L262 120L349 120L349 185L436 185L436 179L524 179L524 131L611 131L611 82L698 82L698 125L785 125L785 114L873 114L873 201L960 201L960 152L960 0L960 0L873 0L873 0L785 0L785 0L698 0L698 0L611 0L611 0L524 0L524 0L436 0L436 0L349 0L349 0L262 0L262 0L175 0L175 0L87 0L87 0L0 0Z" fill="#fa7268"></path><path d="M0 174L87 174L87 293L175 293L175 303L262 303L262 163L349 163L349 222L436 222L436 212L524 212L524 195L611 195L611 114L698 114L698 212L785 212L785 158L873 158L873 244L960 244L960 206L960 150L960 199L873 199L873 112L785 112L785 123L698 123L698 80L611 80L611 129L524 129L524 177L436 177L436 183L349 183L349 118L262 118L262 226L175 226L175 204L87 204L87 129L0 129Z" fill="#ea5e66"></path><path d="M0 222L87 222L87 374L175 374L175 401L262 401L262 249L349 249L349 303L436 303L436 309L524 309L524 244L611 244L611 206L698 206L698 298L785 298L785 276L873 276L873 347L960 347L960 320L960 204L960 242L873 242L873 156L785 156L785 210L698 210L698 112L611 112L611 193L524 193L524 210L436 210L436 220L349 220L349 161L262 161L262 301L175 301L175 291L87 291L87 172L0 172Z" fill="#d84a64"></path><path d="M0 298L87 298L87 476L175 476L175 465L262 465L262 384L349 384L349 438L436 438L436 401L524 401L524 347L611 347L611 325L698 325L698 357L785 357L785 363L873 363L873 449L960 449L960 444L960 318L960 345L873 345L873 274L785 274L785 296L698 296L698 204L611 204L611 242L524 242L524 307L436 307L436 301L349 301L349 247L262 247L262 399L175 399L175 372L87 372L87 220L0 220Z" fill="#c53762"></path><path d="M0 541L87 541L87 541L175 541L175 541L262 541L262 541L349 541L349 541L436 541L436 541L524 541L524 541L611 541L611 541L698 541L698 541L785 541L785 541L873 541L873 541L960 541L960 541L960 442L960 447L873 447L873 361L785 361L785 355L698 355L698 323L611 323L611 345L524 345L524 399L436 399L436 436L349 436L349 382L262 382L262 463L175 463L175 474L87 474L87 296L0 296Z" fill="#b0235f"></path></svg>