<svg id="visual" viewBox="0 0 900 600" width="900" height="600" xmlns="http://www.w3.org/2000/svg" xmlns:xlink="http://www.w3.org/1999/xlink" version="1.1"><path d="M0 247L82 247L82 127L164 127L164 253L245 253L245 223L327 223L327 109L409 109L409 217L491 217L491 217L573 217L573 109L655 109L655 115L736 115L736 115L818 115L818 115L900 115L900 109L900 0L900 0L818 0L818 0L736 0L736 0L655 0L655 0L573 0L573 0L491 0L491 0L409 0L409 0L327 0L327 0L245 0L245 0L164 0L164 0L82 0L82 0L0 0Z" fill="#fa7268"></path><path d="M0 337L82 337L82 373L164 373L164 343L245 343L245 337L327 337L327 319L409 319L409 379L491 379L491 403L573 403L573 379L655 379L655 361L736 361L736 271L818 271L818 313L900 313L900 319L900 107L900 113L818 113L818 113L736 113L736 113L655 113L655 107L573 107L573 215L491 215L491 215L409 215L409 107L327 107L327 221L245 221L245 251L164 251L164 125L82 125L82 245L0 245Z" fill="#ea5e66"></path><path d="M0 397L82 397L82 409L164 409L164 439L245 439L245 409L327 409L327 397L409 397L409 463L491 463L491 445L573 445L573 439L655 439L655 463L736 463L736 367L818 367L818 397L900 397L900 373L900 317L900 311L818 311L818 269L736 269L736 359L655 359L655 377L573 377L573 401L491 401L491 377L409 377L409 317L327 317L327 335L245 335L245 341L164 341L164 371L82 371L82 335L0 335Z" fill="#d84a64"></path><path d="M0 445L82 445L82 493L164 493L164 493L245 493L245 487L327 487L327 517L409 517L409 547L491 547L491 547L573 547L573 553L655 553L655 505L736 505L736 469L818 469L818 511L900 511L900 439L900 371L900 395L818 395L818 365L736 365L736 461L655 461L655 437L573 437L573 443L491 443L491 461L409 461L409 395L327 395L327 407L245 407L245 437L164 437L164 407L82 407L82 395L0 395Z" fill="#c53762"></path><path d="M0 601L82 601L82 601L164 601L164 601L245 601L245 601L327 601L327 601L409 601L409 601L491 601L491 601L573 601L573 601L655 601L655 601L736 601L736 601L818 601L818 601L900 601L900 601L900 437L900 509L818 509L818 467L736 467L736 503L655 503L655 551L573 551L573 545L491 545L491 545L409 545L409 515L327 515L327 485L245 485L245 491L164 491L164 491L82 491L82 443L0 443Z" fill="#b0235f"></path></svg>