<svg id="visual" viewBox="0 0 960 540" width="960" height="540" xmlns="http://www.w3.org/2000/svg" xmlns:xlink="http://www.w3.org/1999/xlink" version="1.1"><path d="M0 39L14.5 43.5C29 48 58 57 87.2 65C116.3 73 145.7 80 174.8 79C204 78 233 69 262 61C291 53 320 46 349 45.2C378 44.3 407 49.7 436.2 49.7C465.3 49.7 494.7 44.3 523.8 46.2C553 48 582 57 611 56C640 55 669 44 698 48.5C727 53 756 73 785.2 80.3C814.3 87.7 843.7 82.3 872.8 73.3C902 64.3 931 51.7 945.5 45.3L960 39L960 0L945.5 0C931 0 902 0 872.8 0C843.7 0 814.3 0 785.2 0C756 0 727 0 698 0C669 0 640 0 611 0C582 0 553 0 523.8 0C494.7 0 465.3 0 436.2 0C407 0 378 0 349 0C320 0 291 0 262 0C233 0 204 0 174.8 0C145.7 0 116.3 0 87.2 0C58 0 29 0 14.5 0L0 0Z" fill="#434952"></path><path d="M0 77L14.5 90.5C29 104 58 131 87.2 149C116.3 167 145.7 176 174.8 172.3C204 168.7 233 152.3 262 138.8C291 125.3 320 114.7 349 108.3C378 102 407 100 436.2 106.2C465.3 112.3 494.7 126.7 523.8 136.7C553 146.7 582 152.3 611 147C640 141.7 669 125.3 698 121.7C727 118 756 127 785.2 136C814.3 145 843.7 154 872.8 146.8C902 139.7 931 116.3 945.5 104.7L960 93L960 37L945.5 43.3C931 49.7 902 62.3 872.8 71.3C843.7 80.3 814.3 85.7 785.2 78.3C756 71 727 51 698 46.5C669 42 640 53 611 54C582 55 553 46 523.8 44.2C494.7 42.3 465.3 47.7 436.2 47.7C407 47.7 378 42.3 349 43.2C320 44 291 51 262 59C233 67 204 76 174.8 77C145.7 78 116.3 71 87.2 63C58 55 29 46 14.5 41.5L0 37Z" fill="#32373f"></path><path d="M0 244L14.5 250.3C29 256.7 58 269.3 87.2 273C116.3 276.7 145.7 271.3 174.8 270.3C204 269.3 233 272.7 262 259.2C291 245.7 320 215.3 349 209.2C378 203 407 221 436.2 231.7C465.3 242.3 494.7 245.7 523.8 243.8C553 242 582 235 611 236.8C640 238.7 669 249.3 698 252C727 254.7 756 249.3 785.2 245.8C814.3 242.3 843.7 240.7 872.8 230.8C902 221 931 203 945.5 194L960 185L960 91L945.5 102.7C931 114.3 902 137.7 872.8 144.8C843.7 152 814.3 143 785.2 134C756 125 727 116 698 119.7C669 123.3 640 139.7 611 145C582 150.3 553 144.7 523.8 134.7C494.7 124.7 465.3 110.3 436.2 104.2C407 98 378 100 349 106.3C320 112.7 291 123.3 262 136.8C233 150.3 204 166.7 174.8 170.3C145.7 174 116.3 165 87.2 147C58 129 29 102 14.5 88.5L0 75Z" fill="#22262c"></path><path d="M0 320L14.5 326.2C29 332.3 58 344.7 87.2 351.8C116.3 359 145.7 361 174.8 365.5C204 370 233 377 262 372.5C291 368 320 352 349 343C378 334 407 332 436.2 350.8C465.3 369.7 494.7 409.3 523.8 425.7C553 442 582 435 611 423.3C640 411.7 669 395.3 698 398.8C727 402.3 756 425.7 785.2 423.8C814.3 422 843.7 395 872.8 371.7C902 348.3 931 328.7 945.5 318.8L960 309L960 183L945.5 192C931 201 902 219 872.8 228.8C843.7 238.7 814.3 240.3 785.2 243.8C756 247.3 727 252.7 698 250C669 247.3 640 236.7 611 234.8C582 233 553 240 523.8 241.8C494.7 243.7 465.3 240.3 436.2 229.7C407 219 378 201 349 207.2C320 213.3 291 243.7 262 257.2C233 270.7 204 267.3 174.8 268.3C145.7 269.3 116.3 274.7 87.2 271C58 267.3 29 254.7 14.5 248.3L0 242Z" fill="#1e2227"></path><path d="M0 541L14.5 541C29 541 58 541 87.2 541C116.3 541 145.7 541 174.8 541C204 541 233 541 262 541C291 541 320 541 349 541C378 541 407 541 436.2 541C465.3 541 494.7 541 523.8 541C553 541 582 541 611 541C640 541 669 541 698 541C727 541 756 541 785.2 541C814.3 541 843.7 541 872.8 541C902 541 931 541 945.5 541L960 541L960 307L945.5 316.8C931 326.7 902 346.3 872.8 369.7C843.7 393 814.3 420 785.2 421.8C756 423.7 727 400.3 698 396.8C669 393.3 640 409.7 611 421.3C582 433 553 440 523.8 423.7C494.7 407.3 465.3 367.7 436.2 348.8C407 330 378 332 349 341C320 350 291 366 262 370.5C233 375 204 368 174.8 363.5C145.7 359 116.3 357 87.2 349.8C58 342.7 29 330.3 14.5 324.2L0 318Z" fill="#1b1e22"></path></svg>